<svg width="15" height="7" viewBox="0 0 15 7" fill="none" xmlns="http://www.w3.org/2000/svg">
<path d="M11.1159 0.136C11.7345 0.136 12.2892 0.28 12.7799 0.568C13.2812 0.845333 13.6759 1.22933 13.9639 1.72C14.2519 2.21067 14.3959 2.76533 14.3959 3.384C14.3959 4.00267 14.2519 4.56267 13.9639 5.064C13.6759 5.56533 13.2812 5.96 12.7799 6.248C12.2892 6.52533 11.7345 6.664 11.1159 6.664C10.2839 6.664 9.59588 6.49333 9.05188 6.152C8.51854 5.8 8.03321 5.31467 7.59588 4.696C7.15854 5.31467 6.67321 5.8 6.13988 6.152C5.60654 6.49333 4.91854 6.664 4.07588 6.664C3.45721 6.664 2.89721 6.52533 2.39588 6.248C1.89454 5.96 1.49988 5.57067 1.21188 5.08C0.923875 4.57867 0.779875 4.01867 0.779875 3.4C0.779875 2.78133 0.923875 2.22667 1.21188 1.736C1.49988 1.23467 1.89454 0.845333 2.39588 0.568C2.89721 0.28 3.45721 0.136 4.07588 0.136C4.91854 0.136 5.60654 0.312 6.13988 0.664C6.67321 1.00533 7.15854 1.48533 7.59588 2.104C8.03321 1.48533 8.51854 1.00533 9.05188 0.664C9.59588 0.312 10.2839 0.136 11.1159 0.136ZM4.21988 5.176C4.78521 5.176 5.25454 5.02667 5.62788 4.728C6.01188 4.41867 6.39054 3.976 6.76388 3.4C6.39054 2.824 6.01188 2.38667 5.62788 2.088C5.25454 1.77867 4.78521 1.624 4.21988 1.624C3.68654 1.624 3.24388 1.79467 2.89188 2.136C2.55054 2.46667 2.37988 2.888 2.37988 3.4C2.37988 3.912 2.55054 4.33867 2.89188 4.68C3.24388 5.01067 3.68654 5.176 4.21988 5.176ZM10.9559 5.176C11.4785 5.176 11.9159 5.00533 12.2679 4.664C12.6199 4.32267 12.7959 3.896 12.7959 3.384C12.7959 2.88267 12.6199 2.46667 12.2679 2.136C11.9159 1.79467 11.4785 1.624 10.9559 1.624C10.3905 1.624 9.91588 1.77867 9.53188 2.088C9.15854 2.38667 8.79054 2.824 8.42788 3.4C8.79054 3.976 9.15854 4.41867 9.53188 4.728C9.91588 5.02667 10.3905 5.176 10.9559 5.176Z" fill="#1D1D1F"/>
</svg>
