<svg width="10" height="10" viewBox="0 0 10 10" fill="none" xmlns="http://www.w3.org/2000/svg">
<g clip-path="url(#clip0)">
<path d="M4.61751 3.0876L6.14756 1.55751C6.14756 1.55751 6.14756 1.55748 6.1476 1.55748C6.1476 1.55748 6.1476 1.55744 6.14763 1.55744C6.78035 0.924685 7.80993 0.924649 8.44272 1.55744C8.74927 1.86399 8.91806 2.27156 8.91806 2.70502C8.91806 3.13845 8.74927 3.54594 8.44283 3.85249C8.4428 3.85253 8.44276 3.85257 8.44272 3.8526L6.91268 5.38269C6.70144 5.59395 6.70144 5.9365 6.91271 6.14773C7.12394 6.35896 7.46649 6.35896 7.67775 6.14773L9.2078 4.61765C9.20791 4.61754 9.20802 4.61739 9.20813 4.61728C9.71877 4.10646 10 3.42733 10 2.70502C10 1.98254 9.71866 1.30329 9.20777 0.792399C8.68043 0.265097 7.9878 0.00142717 7.29514 0.00142717C6.60248 0.00142717 5.90982 0.265097 5.38256 0.792399V0.792435C5.38252 0.792435 5.38252 0.792471 5.38252 0.792471L3.85247 2.32256C3.64124 2.53379 3.64124 2.87633 3.85251 3.0876C4.0637 3.29883 4.40621 3.29883 4.61751 3.0876Z" fill="#2469F0"/>
<path d="M-0.00139618 7.29522C-0.00139618 8.0177 0.27998 8.69695 0.790874 9.20784C1.84552 10.2624 3.56151 10.2624 4.61608 9.20784C4.61612 9.20777 4.61619 9.20773 4.61623 9.20766L6.14624 7.67768C6.3575 7.46645 6.3575 7.12387 6.14624 6.91264C6.04057 6.80697 5.90215 6.75417 5.7637 6.75417C5.62528 6.75417 5.48679 6.80701 5.3812 6.91264L3.85118 8.44262C3.85115 8.44269 3.85108 8.44272 3.851 8.4428C3.21828 9.07552 2.18871 9.07555 1.55592 8.4428C1.2494 8.13625 1.08055 7.72868 1.08055 7.29522C1.08055 6.86179 1.24933 6.45429 1.55581 6.14774C1.55584 6.14771 1.55588 6.14767 1.55592 6.14764L3.08596 4.61755C3.29719 4.40632 3.29719 4.06378 3.08593 3.85251C2.98029 3.74688 2.84184 3.69404 2.70342 3.69404C2.56497 3.69404 2.42652 3.74688 2.32089 3.85251L0.790838 5.38259C0.79073 5.3827 0.790621 5.38285 0.790513 5.38295C0.279872 5.89378 -0.00139618 6.57291 -0.00139618 7.29522Z" fill="#2469F0"/>
<path d="M6.91186 3.08741C6.80623 2.98178 6.66778 2.92894 6.52936 2.92894C6.39091 2.92894 6.25245 2.98178 6.14682 3.08741L3.08666 6.14758C2.87539 6.35881 2.87539 6.70135 3.08666 6.91262C3.29789 7.12385 3.64043 7.12385 3.8517 6.91262L6.91186 3.85249C7.12313 3.64119 7.12313 3.29864 6.91186 3.08741Z" fill="#2469F0"/>
</g>
<defs>
<clipPath id="clip0">
<rect width="10" height="10" fill="white" transform="translate(10 10) rotate(-180)"/>
</clipPath>
</defs>
</svg>
