<svg width="14" height="18" viewBox="0 0 14 18" fill="none" xmlns="http://www.w3.org/2000/svg">
<path d="M12.281 14.8361C11.5936 14.8361 11.0075 15.277 10.7898 15.8907H8.48914C8.33 15.442 7.97382 15.086 7.52521 14.9268V13.0626H11.3781C11.6694 13.0626 11.9055 12.8265 11.9055 12.5353V0.527313C11.9055 0.236096 11.6694 0 11.3781 0H2.61769C2.32647 0 2.09037 0.236096 2.09037 0.527313V12.5353C2.09037 12.8265 2.32647 13.0626 2.61769 13.0626H6.47062V14.9268C6.02202 15.086 5.66584 15.442 5.50669 15.8907H3.20599C2.98832 15.277 2.40219 14.8361 1.71475 14.8361C0.84247 14.8361 0.132812 15.5458 0.132812 16.4181C0.132812 17.2903 0.84247 18 1.71475 18C2.40219 18 2.98832 17.5591 3.20599 16.9454H5.50666C5.72433 17.5591 6.31046 18 6.9979 18C7.68534 18 8.27147 17.5591 8.48914 16.9454H10.7898C11.0075 17.5591 11.5936 18 12.281 18C13.1533 18 13.863 17.2903 13.863 16.4181C13.863 15.5458 13.1534 14.8361 12.281 14.8361ZM9.18801 9.73922C8.89159 9.73922 8.67212 9.49697 8.65929 9.2105C8.64649 8.92498 8.91145 8.68178 9.18801 8.68178C9.48443 8.68178 9.70389 8.92403 9.71672 9.2105C9.72952 9.49603 9.4646 9.73922 9.18801 9.73922ZM4.80779 2.79609H9.18804C9.47926 2.79609 9.71535 3.03219 9.71535 3.32341C9.71535 3.61462 9.47926 3.85072 9.18804 3.85072H4.80779C4.51658 3.85072 4.28048 3.61462 4.28048 3.32341C4.28048 3.03219 4.51658 2.79609 4.80779 2.79609ZM4.80779 5.12857H9.18804C9.47926 5.12857 9.71535 5.36467 9.71535 5.65589C9.71535 5.9471 9.47926 6.1832 9.18804 6.1832H4.80779C4.51658 6.1832 4.28048 5.9471 4.28048 5.65589C4.28048 5.36467 4.51658 5.12857 4.80779 5.12857ZM4.80779 9.73922C4.51137 9.73922 4.29191 9.49697 4.27907 9.2105C4.26628 8.92498 4.53123 8.68178 4.80779 8.68178C5.10421 8.68178 5.32368 8.92403 5.33651 9.2105C5.34931 9.49603 5.08435 9.73922 4.80779 9.73922ZM6.46918 9.2105C6.45638 8.92498 6.72134 8.68178 6.9979 8.68178C7.29432 8.68178 7.51379 8.92403 7.52662 9.2105C7.53941 9.49603 7.27446 9.73922 6.9979 9.73922C6.70148 9.73922 6.48201 9.49697 6.46918 9.2105Z" fill="#2469F0"/>
</svg>
